/* XPM */
static char * qstopmotion_xpm[] = {
"36 36 67 1",
" 	c None",
".	c #C80404",
"+	c #F70000",
"@	c #FF0000",
"#	c #EE0101",
"$	c #C00303",
"%	c #E40101",
"&	c #F50101",
"*	c #DE0202",
"=	c #B40404",
"-	c #FD0000",
";	c #DA0202",
">	c #DF0202",
",	c #C60303",
"'	c #F60101",
")	c #BA0303",
"!	c #DD0202",
"~	c #CC0303",
"{	c #CE0202",
"]	c #B70404",
"^	c #C40303",
"/	c #E90101",
"(	c #FE0000",
"_	c #BC0303",
":	c #F90000",
"<	c #C90303",
"[	c #BB0505",
"}	c #BD0404",
"|	c #D60202",
"1	c #9B0606",
"2	c #A70606",
"3	c #A70505",
"4	c #940808",
"5	c #A80606",
"6	c #B90404",
"7	c #B00606",
"8	c #8A0808",
"9	c #00009D",
"0	c #0C0C0C",
"a	c #070707",
"b	c #080808",
"c	c #0000FF",
"d	c #0000E5",
"e	c #0000A9",
"f	c #0A0A0A",
"g	c #000000",
"h	c #030303",
"i	c #0000F4",
"j	c #0000B2",
"k	c #0000FD",
"l	c #0000C0",
"m	c #0000D2",
"n	c #00009B",
"o	c #09090D",
"p	c #070744",
"q	c #07074E",
"r	c #0000F9",
"s	c #0000B8",
"t	c #08081A",
"u	c #0000F1",
"v	c #0000B0",
"w	c #0000E6",
"x	c #0000DA",
"y	c #0000A2",
"z	c #0000CE",
"A	c #000096",
"B	c #050505",
"                                    ",
"              .+@@#$       %@@@&$   ",
"             #@@@@@@*    =-@@@@@@;  ",
"            >@@@@@@@@,   '@@@@@@@@) ",
"            @@@@@@@@@'  $@@@@@@@@@! ",
"           $@@@@@@@@@@  ~@@@@@@@@@@ ",
"           $@@@@@@@@@@  {@@@@@@@@@@ ",
"           ]@@@@@@@@@@  ^@@@@@@@@@/ ",
"            '@@@@@@@@!   (@@@@@@@@, ",
"            _@@@@@@@:    <@@@@@@@/  ",
"             [:@@@@#      }:@@@@|   ",
"               1234         5678    ",
" 9         0aaaaaaaaaaaaaaaaaaaaaab ",
" cde       fggggggggggggggggggggggh ",
" cccij     fggggggggggggggggggggggh ",
" ccccckl   fggggggggggggggggggggggh ",
" ccccccccmnoggggggggggggggggggggggh ",
" ccccccccccpggggggggggggggggggggggh ",
" ccccccccccqggggggggggggggggggggggh ",
" ccccccccccqggggggggggggggggggggggh ",
" ccccccccccqggggggggggggggggggggggh ",
" ccccccccccqggggggggggggggggggggggh ",
" ccccccccccqggggggggggggggggggggggh ",
" ccccccccccqggggggggggggggggggggggh ",
" ccccccccccqggggggggggggggggggggggh ",
" ccccccccccqggggggggggggggggggggggh ",
" ccccccccrstggggggggggggggggggggggh ",
" ccccccuv  fggggggggggggggggggggggh ",
" ccccwe    fggggggggggggggggggggggh ",
" ccxy      fggggggggggggggggggggggh ",
" zA        fggggggggggggggggggggggh ",
"           fggggggggggggggggggggggh ",
"           fggggggggggggggggggggggh ",
"           fggggggggggggggggggggggh ",
"           0BBBBBBBBBBBBBBBBBBBBBBb ",
"                                    "};
