/* XPM */
static char * qstopmotion_32_32_xpm[] = {
"32 32 60 1",
" 	c None",
".	c #C80404",
"+	c #F70000",
"@	c #FF0000",
"#	c #EE0101",
"$	c #C00303",
"%	c #E40101",
"&	c #F50101",
"*	c #DE0202",
"=	c #B40404",
"-	c #FD0000",
";	c #DA0202",
">	c #DF0202",
",	c #C60303",
"'	c #F60101",
")	c #BA0303",
"!	c #DD0202",
"~	c #CC0303",
"{	c #B70404",
"]	c #C40303",
"^	c #E90101",
"/	c #FE0000",
"(	c #BC0303",
"_	c #F90000",
":	c #C90303",
"<	c #BB0505",
"[	c #BD0404",
"}	c #D60202",
"|	c #9B0606",
"1	c #A70505",
"2	c #940808",
"3	c #A80606",
"4	c #B00606",
"5	c #8A0808",
"6	c #0C0C0C",
"7	c #070707",
"8	c #080808",
"9	c #0000A9",
"0	c #0A0A0A",
"a	c #000000",
"b	c #030303",
"c	c #0000FF",
"d	c #0000F4",
"e	c #0000B2",
"f	c #0000FD",
"g	c #0000C0",
"h	c #0000D2",
"i	c #00009B",
"j	c #09090D",
"k	c #070744",
"l	c #07074E",
"m	c #0000F9",
"n	c #0000B8",
"o	c #08081A",
"p	c #0000F1",
"q	c #0000B0",
"r	c #0000E6",
"s	c #0000DA",
"t	c #0000A2",
"u	c #050505",
"                                ",
"            .+@#$       %@@&$   ",
"           #@@@@@*    =-@@@@@;  ",
"          >@@@@@@@,   '@@@@@@@) ",
"          @@@@@@@@'  $@@@@@@@@! ",
"         $@@@@@@@@@  ~@@@@@@@@@ ",
"         {@@@@@@@@@  ]@@@@@@@@^ ",
"          '@@@@@@@!   /@@@@@@@, ",
"          (@@@@@@_    :@@@@@@^  ",
"           <_@@@#      [_@@@}   ",
"             |12         345    ",
"         6777777777777777777778 ",
" 9       0aaaaaaaaaaaaaaaaaaaab ",
" cde     0aaaaaaaaaaaaaaaaaaaab ",
" cccfg   0aaaaaaaaaaaaaaaaaaaab ",
" cccccchijaaaaaaaaaaaaaaaaaaaab ",
" cccccccckaaaaaaaaaaaaaaaaaaaab ",
" cccccccclaaaaaaaaaaaaaaaaaaaab ",
" cccccccclaaaaaaaaaaaaaaaaaaaab ",
" cccccccclaaaaaaaaaaaaaaaaaaaab ",
" cccccccclaaaaaaaaaaaaaaaaaaaab ",
" cccccccclaaaaaaaaaaaaaaaaaaaab ",
" cccccccclaaaaaaaaaaaaaaaaaaaab ",
" ccccccmnoaaaaaaaaaaaaaaaaaaaab ",
" ccccpq  0aaaaaaaaaaaaaaaaaaaab ",
" ccr9    0aaaaaaaaaaaaaaaaaaaab ",
" st      0aaaaaaaaaaaaaaaaaaaab ",
"         0aaaaaaaaaaaaaaaaaaaab ",
"         0aaaaaaaaaaaaaaaaaaaab ",
"         0aaaaaaaaaaaaaaaaaaaab ",
"         6uuuuuuuuuuuuuuuuuuuu8 ",
"                                "};
